<svg width="32" height="32" viewBox="0 0 32 32" fill="none" xmlns="http://www.w3.org/2000/svg">
<path d="M26.6667 29.3333H5.33335C4.62611 29.3333 3.94783 29.0523 3.44774 28.5523C2.94764 28.0522 2.66669 27.3738 2.66669 26.6666V12.0653C2.68885 11.6246 2.81839 11.1959 3.04404 10.8167C3.26968 10.4374 3.58458 10.1191 3.96135 9.88928L14.628 3.48931C15.0423 3.2409 15.5163 3.10968 15.9993 3.10968C16.4824 3.10968 16.9564 3.2409 17.3707 3.48931L28.0374 9.88928C28.8386 10.3733 29.3307 11.24 29.3334 12.176V26.6666C29.3334 27.3738 29.0524 28.0522 28.5523 28.5523C28.0522 29.0523 27.374 29.3333 26.6667 29.3333ZM5.33335 13.1573V26.6666H26.6667V13.1573L16 20.2679L5.33335 13.1573ZM16 5.77597L7.08802 11.1226L16 17.064L24.9107 11.1226L16 5.77597Z" fill="#F0E3CA"/>
</svg>
